<svg id="Group_2" data-name="Group 2" xmlns="http://www.w3.org/2000/svg" xmlns:xlink="http://www.w3.org/1999/xlink" width="135.281" height="68.659" viewBox="0 0 135.281 68.659">
  <defs>
    <clipPath id="clip-path">
      <rect id="Rectangle_1" data-name="Rectangle 1" width="135.281" height="68.659" fill="none"/>
    </clipPath>
  </defs>
  <g id="Group_1" data-name="Group 1" clip-path="url(#clip-path)">
    <path id="Path_1" data-name="Path 1" d="M81.582,29.753a7.6,7.6,0,0,0-5.7-7.95,12.171,12.171,0,0,0-6.514.454A29.4,29.4,0,0,0,59.593,27.9c-.711.584-1.4,1.2-2.188,1.871.247-2.345.479-4.558.717-6.84l-8.474-.23c.07-.3.119-.524.176-.748.523-2.076,1.114-4.135,1.553-6.228a24.126,24.126,0,0,0,.385-8.509C51.05,2.37,47.1-.628,42.427.111A24.62,24.62,0,0,0,33.5,3.644a58.075,58.075,0,0,0-14.889,13.3,39.277,39.277,0,0,0-6.649,11.091c-.163.442-.447.455-.808.45-2.066-.027-4.133-.032-6.2-.074a.9.9,0,0,0-.933.531C2.827,31.143,1.6,33.33.388,35.525c-.109.2-.2.4-.388.782H9.679c0,.64.007,1.133,0,1.625-.04,2.455-.193,4.914-.1,7.363.082,2.091.452,4.166.684,6.25.059.529.331.719.839.8,1.835.293,3.662.645,5.492.965.872.153,1.75.283,2.746.442a54.936,54.936,0,0,1-.861-17.385H35.144l-5.6,11c3.217,0,6.246.01,9.274-.02.19,0,.452-.272.553-.482.805-1.669,1.622-3.333,2.356-5.035q3.307-7.659,6.548-15.346c.467-1.109.819-2.269,1.223-3.4a.349.349,0,0,1,.148.281,49.375,49.375,0,0,1-.768,11.346,71.187,71.187,0,0,1-5.306,15.958c-2.588,5.7-5.311,11.344-7.975,17.012-.135.284-.266.572-.454.98,2.819-.555,5.494-1.074,8.165-1.622a.8.8,0,0,0,.44-.459c.573-1.44,1.1-2.9,1.675-4.338a83.048,83.048,0,0,1,9.134-17.548,63.977,63.977,0,0,1,11.805-13.08,13.85,13.85,0,0,1,5.131-2.94c1.8-.459,2.921.783,2.324,2.61a6.044,6.044,0,0,1-1.03,1.9,23.05,23.05,0,0,1-7.879,5.931,14.763,14.763,0,0,1-5.859,1.919c-.183.008-.409.27-.519.47-.9,1.621-1.773,3.253-2.649,4.883-.15.283-.267.581-.427.931a3.111,3.111,0,0,0,.395.06q9.058,0,18.118-.02A1.006,1.006,0,0,0,74.645,47c1.516-1.834,3.009-3.686,4.5-5.538a4.1,4.1,0,0,0,.284-.51h-5c1.081-1,2.131-1.879,3.079-2.864a12.952,12.952,0,0,0,4.07-8.34m-38.2-17.119a39.021,39.021,0,0,1-2.215,9.029c-.711,2.116-1.521,4.2-2.281,6.3-.118.328-.237.556-.662.553q-8.642-.068-17.284-.106c-.091,0-.18-.027-.471-.073.729-1.3,1.348-2.528,2.082-3.682a40.067,40.067,0,0,1,12.82-12.9A21.081,21.081,0,0,1,40,9.646c2.568-.815,3.622.2,3.38,2.988" transform="translate(0 0)" fill="#fff"/>
    <path id="Path_2" data-name="Path 2" d="M258.326,82.35c.166-.1.337-.2.5-.311,1.918-1.286,3.913-2.467,5.733-3.888a16.794,16.794,0,0,0,5.613-7.46c1.093-2.966.207-5.7-2.34-6.936a10,10,0,0,0-3.415-.961,16.628,16.628,0,0,0-11.8,3.636c-4.106,3.136-6.5,7.492-7.95,12.432a8.428,8.428,0,0,0,.207,5.9,6.141,6.141,0,0,0,5.183,4.022c4.349.279,8.721.187,13.082.264a.791.791,0,0,0,.85-.526c.855-1.827,1.746-3.637,2.618-5.457a4.715,4.715,0,0,0,.183-.593h-8.445c-.008-.039-.019-.077-.027-.116m4.428-12.227a3.462,3.462,0,0,1-.474.909,40.1,40.1,0,0,1-3.3,3.069,35.852,35.852,0,0,1-6.832,3.931c.593-3.637,7.232-8.637,10.6-7.909" transform="translate(-161.49 -41.477)" fill="#fff"/>
    <path id="Path_3" data-name="Path 3" d="M342.839,61.743a12.052,12.052,0,0,0-8.531.751,28.09,28.09,0,0,0-10.7,8.224,21.391,21.391,0,0,0-4.576,8.3,7.134,7.134,0,0,0,.4,5.5c1.349,2.407,3.644,3.254,6.109,3.338,4.083.138,8.173.006,12.259-.047a1.094,1.094,0,0,0,.773-.5c.772-1.366,1.489-2.765,2.222-4.151.257-.486.507-.975.808-1.553-.386-.03-.654-.062-.923-.067-3.6-.07-7.208-.131-10.812-.213a9.189,9.189,0,0,1-1.7-.213c-1.449-.309-1.693-.729-1.293-2.17a11.863,11.863,0,0,1,2.577-4.469,16.073,16.073,0,0,1,7.644-5.427c.918-.272,1.423.112,1.294,1.084a9.046,9.046,0,0,1-.585,2.1c-.306.775-.719,1.507-1.086,2.255.087.052.124.092.161.094,1.607.059,3.212.119,4.818.166.753.022,1.7.3,2.2-.057s.595-1.373.815-2.114a21.491,21.491,0,0,0,1.265-6.493,4.075,4.075,0,0,0-3.144-4.328" transform="translate(-210.704 -40.507)" fill="#fff"/>
  </g>
</svg>
